<svg id="svg" version="1.1" width="800" height="800" xmlns="http://www.w3.org/2000/svg"><path d="M302.878 9.841 C 292.985 16.333,285.513 23.242,282.305 28.866 C 280.851 31.415,279.078 34.194,278.364 35.042 C 274.640 39.467,248.122 94.224,236.251 122.000 C 230.485 135.492,214.180 184.094,210.587 198.500 C 206.502 214.881,197.188 262.564,195.451 275.997 C 194.562 282.871,193.427 288.986,192.929 289.586 C 192.431 290.186,190.202 291.222,187.976 291.889 C 185.750 292.556,181.920 295.027,179.465 297.379 C 175.701 300.985,175.000 302.258,175.000 305.484 C 175.000 308.121,175.855 310.429,177.750 312.906 C 180.038 315.896,180.600 317.845,181.095 324.500 C 181.422 328.900,182.183 333.850,182.786 335.500 C 183.389 337.150,184.631 341.425,185.545 345.000 C 186.460 348.575,187.907 353.193,188.761 355.262 C 190.077 358.448,190.212 362.229,189.643 379.927 C 188.881 403.655,188.809 403.399,196.500 404.552 C 201.965 405.372,203.760 404.761,204.930 401.685 C 205.424 400.384,206.378 389.685,207.050 377.910 C 208.414 353.977,208.389 354.050,216.151 351.959 C 218.330 351.372,221.830 349.342,223.928 347.446 C 226.898 344.763,228.601 344.001,231.621 344.004 C 233.755 344.007,241.700 342.806,249.277 341.336 L 263.054 338.664 265.808 340.700 C 270.460 344.139,276.779 347.000,279.710 346.994 C 281.245 346.990,283.850 346.236,285.500 345.317 C 287.150 344.398,290.300 343.613,292.500 343.573 C 295.758 343.514,296.527 343.129,296.644 341.500 C 296.908 337.822,297.135 337.487,298.000 339.500 C 298.473 340.600,298.891 343.791,298.930 346.591 C 298.968 349.391,299.672 353.891,300.494 356.591 L 301.988 361.500 298.754 364.170 C 296.566 365.976,295.292 366.473,294.817 365.704 C 294.386 365.006,293.707 365.641,293.057 367.349 C 291.695 370.932,291.649 370.578,294.136 375.557 L 296.271 379.833 286.986 390.167 C 273.729 404.921,268.487 411.657,257.935 427.500 C 252.807 435.200,245.006 446.675,240.599 453.000 C 228.934 469.744,219.317 486.375,216.824 494.114 L 214.645 500.880 217.322 504.744 C 220.542 509.389,220.595 510.401,217.937 516.410 C 216.520 519.612,215.902 523.021,215.965 527.287 C 216.015 530.704,215.768 537.016,215.416 541.313 C 214.677 550.317,215.836 555.603,219.819 561.404 C 223.368 566.573,226.811 569.008,232.667 570.491 C 237.086 571.611,237.640 572.091,239.133 576.108 C 241.710 583.039,249.994 619.125,250.670 626.366 C 251.136 631.361,250.918 633.476,249.755 635.251 C 248.870 636.602,242.547 640.391,234.708 644.269 C 221.292 650.906,209.058 659.109,205.137 664.097 C 203.114 666.670,200.873 671.956,198.686 679.314 C 197.713 682.590,197.831 683.642,199.526 686.770 C 202.179 691.665,206.780 694.138,214.296 694.709 C 220.018 695.143,221.626 694.739,235.000 689.508 C 269.342 676.074,294.998 661.840,296.637 655.310 C 297.122 653.378,296.491 652.052,293.717 649.173 C 289.408 644.700,288.311 640.924,286.908 625.734 C 285.982 615.709,286.071 612.601,287.511 604.734 C 289.254 595.209,291.915 584.513,292.385 585.143 C 292.531 585.339,292.378 596.975,292.044 611.000 C 291.709 625.025,291.628 637.107,291.863 637.849 C 292.287 639.187,294.954 633.088,295.396 629.770 C 295.830 626.510,296.788 626.896,302.035 632.443 C 304.925 635.500,307.663 638.000,308.119 638.000 C 308.575 638.000,309.687 636.573,310.589 634.829 C 311.877 632.337,312.109 629.928,311.671 623.579 L 311.113 615.500 312.560 624.000 C 313.623 630.248,314.565 632.964,316.114 634.250 C 318.563 636.284,321.102 636.498,322.787 634.813 C 323.702 633.898,324.529 634.148,326.405 635.911 C 328.366 637.753,329.481 638.060,332.168 637.499 C 336.621 636.570,340.000 634.328,340.000 632.303 C 340.000 630.929,340.399 631.026,342.370 632.877 C 344.095 634.498,345.429 634.930,347.275 634.467 C 348.861 634.069,350.717 634.424,352.228 635.414 C 354.255 636.742,355.579 636.825,360.422 635.930 C 366.941 634.725,368.955 635.140,369.100 637.719 C 369.302 641.334,370.801 634.487,370.900 629.493 C 370.955 626.740,371.475 622.915,372.055 620.993 C 372.635 619.072,373.350 606.475,373.643 593.000 C 374.145 569.943,374.299 568.367,376.262 566.250 C 379.206 563.075,380.969 563.403,387.733 568.383 C 393.789 572.841,397.234 576.563,407.824 590.087 C 415.700 600.146,427.854 609.376,435.464 611.079 C 438.522 611.764,441.424 612.813,441.914 613.412 C 443.691 615.582,465.385 657.801,470.736 669.500 C 479.353 688.342,481.000 693.305,481.000 700.437 C 481.000 704.868,482.684 713.363,486.581 728.592 C 489.650 740.587,492.763 754.115,493.497 758.654 C 494.363 764.005,495.931 768.946,497.954 772.704 C 501.093 778.534,508.379 787.057,512.973 790.270 C 516.514 792.748,521.980 792.466,525.856 789.606 C 527.641 788.289,531.172 786.691,533.702 786.054 C 542.802 783.762,547.800 779.699,550.631 772.292 C 553.162 765.672,551.833 760.999,541.458 740.020 C 528.934 714.694,523.481 701.968,521.529 693.505 C 519.714 685.636,515.519 658.150,514.508 647.500 C 513.454 636.398,508.151 603.396,506.313 596.498 L 504.639 590.214 512.798 581.413 C 522.405 571.049,524.340 567.451,524.311 560.000 C 524.289 554.180,520.062 537.166,515.119 523.000 C 512.185 514.593,512.174 514.477,514.076 512.436 C 516.532 509.801,516.512 506.846,514.008 502.198 C 512.912 500.164,508.705 491.750,504.659 483.500 C 500.613 475.250,495.884 465.902,494.151 462.727 C 492.418 459.553,491.000 456.055,491.000 454.955 C 491.000 453.856,494.404 448.524,498.565 443.108 L 506.129 433.259 512.875 432.777 C 516.978 432.483,520.699 431.588,522.372 430.492 C 525.053 428.735,525.418 428.759,536.900 431.436 C 550.663 434.644,552.981 434.546,554.831 430.676 C 557.050 426.032,555.693 423.644,548.768 420.000 C 545.321 418.185,542.328 416.559,542.117 416.384 C 541.907 416.210,543.678 413.015,546.053 409.284 C 551.899 400.102,552.010 394.855,546.595 383.775 L 542.819 376.049 548.487 364.655 C 551.605 358.388,554.401 351.432,554.700 349.196 C 555.172 345.680,554.876 344.789,552.501 342.589 C 549.597 339.897,543.424 338.153,542.009 339.625 C 540.749 340.936,531.000 359.754,531.000 360.875 C 531.000 361.409,532.216 363.344,533.702 365.173 L 536.404 368.500 533.610 366.000 C 529.799 362.590,529.332 361.554,525.581 348.185 C 521.431 333.397,504.980 293.333,500.959 288.221 C 499.172 285.950,499.058 284.658,499.618 273.119 C 500.159 261.970,499.867 258.228,497.111 241.000 C 495.395 230.275,493.275 219.025,492.399 216.000 C 491.523 212.975,490.166 208.025,489.382 205.000 C 485.902 191.556,482.613 181.273,479.367 173.689 C 475.734 165.201,473.567 162.000,471.454 162.000 C 469.772 162.000,459.923 171.957,453.154 180.500 C 445.312 190.396,444.476 190.815,442.663 185.750 C 440.997 181.094,431.212 161.120,429.104 158.072 C 428.126 156.658,427.032 154.688,426.673 153.696 C 425.204 149.631,442.659 135.322,454.977 130.494 C 458.694 129.036,460.457 127.796,460.367 126.702 C 460.146 123.988,449.094 108.165,446.942 107.482 C 442.805 106.168,432.290 112.440,422.920 121.810 L 414.150 130.579 410.702 125.343 L 407.253 120.106 424.797 96.803 C 442.913 72.739,455.000 55.498,455.000 53.722 C 455.000 52.381,441.591 53.418,433.000 55.423 C 421.588 58.086,405.208 65.649,402.769 69.381 C 401.765 70.917,404.808 73.000,408.056 73.000 C 412.430 73.000,416.002 76.523,415.987 80.823 C 415.970 85.507,409.816 96.517,403.032 104.000 C 398.650 108.834,397.831 109.345,396.273 108.224 C 395.298 107.523,392.025 105.733,389.000 104.246 C 381.579 100.599,369.090 100.396,361.593 103.799 C 355.569 106.533,355.544 106.516,346.998 93.674 C 340.088 83.290,339.516 80.158,343.730 75.760 C 346.293 73.084,346.370 72.751,344.980 70.303 C 342.772 66.414,328.702 58.175,318.660 54.891 C 308.757 51.653,299.324 50.992,298.373 53.470 C 298.023 54.382,304.406 63.588,315.186 77.720 C 343.349 114.641,344.000 115.545,344.000 117.738 C 344.000 120.349,340.876 125.985,339.424 125.994 C 338.833 125.997,337.258 124.826,335.924 123.392 C 328.866 115.798,313.894 108.000,306.374 108.000 C 301.889 108.000,288.228 124.824,289.667 128.574 C 289.940 129.287,292.326 130.333,294.968 130.900 C 312.015 134.556,333.341 148.198,331.429 154.224 C 330.773 156.289,319.710 174.349,317.476 177.000 C 314.741 180.245,307.000 195.370,307.000 197.467 C 307.000 202.198,309.367 202.857,323.000 201.921 C 329.875 201.450,337.525 200.809,340.000 200.497 L 344.500 199.931 338.500 202.256 C 335.200 203.534,329.400 206.707,325.610 209.306 C 316.399 215.625,314.438 216.049,311.395 212.385 C 310.077 210.798,308.266 208.022,307.369 206.215 C 304.026 199.479,303.099 199.801,290.226 212.166 C 268.899 232.650,222.002 280.451,220.436 283.300 C 219.589 284.840,219.169 286.958,219.502 288.008 C 219.835 289.057,223.346 292.697,227.304 296.096 C 236.270 303.797,236.819 304.670,233.613 306.131 C 230.353 307.616,228.202 306.693,226.964 303.276 C 224.855 297.454,223.369 295.661,218.264 292.780 C 212.454 289.501,212.315 289.083,213.989 279.917 C 214.534 276.938,215.911 268.200,217.050 260.500 C 220.080 240.016,223.619 222.227,227.595 207.500 C 232.551 189.139,243.235 157.889,249.987 142.000 C 253.142 134.575,257.200 124.450,259.005 119.500 C 266.676 98.463,291.157 45.845,303.437 24.000 C 306.374 18.775,309.087 13.150,309.466 11.500 C 309.846 9.850,310.866 7.713,311.733 6.750 C 314.823 3.321,310.533 4.818,302.878 9.841 M305.048 14.430 C 301.262 19.933,271.125 80.537,260.757 103.500 C 249.547 128.324,235.245 168.715,226.409 200.500 C 217.976 230.835,213.118 256.701,210.601 284.658 C 209.292 299.208,209.245 299.392,206.123 302.181 C 202.696 305.243,201.467 305.508,197.565 304.025 C 194.699 302.935,194.150 299.352,196.077 294.315 C 196.669 292.767,198.002 285.875,199.038 279.000 C 200.075 272.125,201.373 263.800,201.922 260.500 C 202.472 257.200,203.664 249.550,204.570 243.500 C 210.174 206.107,223.100 161.816,238.909 125.832 C 241.647 119.599,246.874 107.300,250.523 98.500 C 254.173 89.700,259.992 77.100,263.455 70.500 C 266.917 63.900,273.033 52.200,277.044 44.500 C 281.056 36.800,285.724 28.759,287.419 26.631 C 290.528 22.726,305.711 10.000,307.260 10.000 C 307.720 10.000,306.725 11.994,305.048 14.430 M307.644 58.831 C 309.215 60.388,312.300 64.304,314.500 67.533 C 316.700 70.763,322.587 78.826,327.582 85.452 C 332.577 92.079,338.626 100.425,341.024 104.000 C 345.903 111.274,349.980 116.249,356.802 123.250 C 359.348 125.862,360.885 128.000,360.218 128.000 C 358.078 128.000,351.512 121.309,345.422 112.923 C 342.165 108.438,331.310 93.796,321.301 80.384 C 304.302 57.609,300.739 51.986,307.644 58.831 M448.000 57.681 C 448.000 58.533,439.811 70.406,431.678 81.345 C 428.280 85.915,421.575 95.245,416.777 102.077 C 411.980 108.910,406.212 116.525,403.960 119.000 C 399.087 124.355,399.796 122.380,405.036 116.000 C 407.069 113.525,414.205 103.625,420.895 94.000 C 427.585 84.375,435.506 73.125,438.496 69.000 C 441.487 64.875,443.797 61.050,443.629 60.500 C 443.462 59.950,444.039 58.952,444.912 58.282 C 446.695 56.914,448.000 56.660,448.000 57.681 M313.068 113.595 C 319.799 115.572,323.507 117.771,332.791 125.290 C 339.652 130.847,343.825 135.508,342.831 136.503 C 342.588 136.745,339.715 134.413,336.445 131.320 C 328.174 123.496,320.984 118.359,315.012 116.005 C 307.253 112.947,305.700 113.282,301.323 118.957 C 297.395 124.051,296.000 125.016,296.000 122.641 C 296.000 120.544,303.952 112.000,305.903 112.000 C 306.857 112.000,310.081 112.718,313.068 113.595 M451.209 117.500 C 453.288 120.250,454.967 123.175,454.939 124.000 C 454.908 124.928,454.052 124.377,452.694 122.557 C 451.487 120.938,449.150 118.116,447.500 116.286 L 444.500 112.958 440.325 115.046 C 434.102 118.159,419.570 132.268,414.475 140.145 C 409.739 147.466,409.000 150.857,411.580 153.438 C 412.450 154.307,412.972 155.576,412.742 156.259 C 412.047 158.317,409.000 151.351,409.000 147.705 C 409.000 145.668,409.742 143.638,410.855 142.631 C 411.875 141.708,413.788 138.841,415.105 136.261 C 418.126 130.343,426.852 121.349,434.022 116.763 C 443.581 110.648,446.109 110.756,451.209 117.500 M400.000 146.588 C 402.885 147.451,403.453 148.063,403.234 150.068 C 402.896 153.152,400.039 157.072,397.422 158.040 C 396.119 158.522,393.478 157.954,389.953 156.433 C 383.441 153.623,380.853 153.507,371.000 155.579 C 366.875 156.446,362.046 156.926,360.270 156.644 C 356.388 156.029,351.120 152.190,348.837 148.312 L 347.175 145.487 371.837 145.514 C 386.042 145.529,397.984 145.985,400.000 146.588 M408.516 175.607 C 407.868 185.108,407.666 185.831,405.365 186.880 C 402.324 188.265,401.000 188.301,401.000 187.000 C 401.000 186.450,401.665 186.000,402.477 186.000 C 405.116 186.000,407.139 181.522,406.808 176.414 C 406.465 171.109,406.770 170.773,401.983 181.700 C 400.049 186.115,397.525 188.858,396.417 187.750 C 396.253 187.587,397.358 185.439,398.871 182.977 C 402.699 176.749,405.744 168.498,406.611 162.000 L 407.346 156.500 408.277 160.978 C 408.789 163.441,408.896 170.024,408.516 175.607 M348.713 177.500 C 349.315 178.600,352.306 182.633,355.359 186.462 C 361.425 194.070,361.985 196.316,356.485 190.985 C 352.163 186.796,351.927 187.709,356.104 192.465 C 358.365 195.041,360.061 196.021,362.354 196.079 L 365.500 196.158 362.652 197.195 C 358.963 198.538,356.033 197.221,352.550 192.654 C 349.109 188.143,343.980 173.030,344.071 167.672 L 344.142 163.500 345.880 169.500 C 346.836 172.800,348.110 176.400,348.713 177.500 M462.919 177.181 C 459.468 181.756,455.168 186.965,453.365 188.756 L 450.088 192.011 452.469 193.572 C 454.934 195.187,457.000 199.696,457.000 203.462 C 457.000 204.652,458.405 206.948,460.123 208.563 C 462.776 211.058,466.000 216.520,466.000 218.520 C 466.000 218.841,463.750 216.400,461.000 213.096 C 457.210 208.541,456.000 206.284,456.000 203.766 C 456.000 201.940,455.299 199.445,454.443 198.223 C 453.587 197.000,453.162 196.000,453.499 196.000 C 453.836 196.000,452.935 194.988,451.497 193.750 L 448.883 191.500 454.527 184.000 C 460.518 176.040,468.102 167.769,468.785 168.452 C 469.011 168.677,466.371 172.605,462.919 177.181 M432.500 190.816 C 436.900 191.287,441.982 192.443,443.794 193.385 C 447.436 195.278,450.990 200.333,450.996 203.628 C 451.004 208.259,444.315 209.789,439.173 206.332 C 431.541 201.200,421.778 197.769,409.691 195.971 C 398.022 194.235,400.351 193.082,412.432 194.614 C 423.050 195.960,427.344 197.166,434.225 200.734 C 436.824 202.081,440.767 203.427,442.987 203.725 C 446.258 204.164,446.808 204.526,445.889 205.633 C 444.334 207.508,445.495 207.362,447.415 205.442 C 448.826 204.031,448.771 203.609,446.824 200.976 C 444.582 197.943,436.981 194.916,428.000 193.480 C 425.525 193.085,420.350 191.905,416.500 190.860 L 409.500 188.958 417.000 189.459 C 421.125 189.734,428.100 190.345,432.500 190.816 M412.414 200.860 C 412.706 201.334,414.936 201.993,417.369 202.327 C 422.935 203.090,432.962 207.463,433.115 209.195 C 433.273 210.981,432.879 214.422,432.468 214.851 C 432.283 215.044,430.639 214.087,428.816 212.725 C 426.992 211.362,423.700 209.708,421.500 209.049 C 417.689 207.907,409.146 204.875,404.194 202.908 C 402.925 202.404,402.164 201.543,402.503 200.996 C 403.255 199.778,411.674 199.663,412.414 200.860 M367.845 201.883 C 368.824 202.504,368.416 202.921,366.345 203.416 C 357.125 205.621,340.489 211.535,338.364 213.363 C 333.304 217.715,338.311 221.166,346.642 219.069 C 349.173 218.431,351.480 218.147,351.770 218.437 C 352.060 218.727,355.043 217.011,358.398 214.624 C 367.043 208.477,370.979 206.579,372.315 207.915 C 373.687 209.287,373.119 209.832,365.000 214.943 C 352.963 222.520,346.152 225.289,338.377 225.767 C 329.829 226.293,327.000 225.133,327.000 221.100 C 327.000 216.572,330.336 213.423,338.254 210.479 C 342.239 208.997,348.200 206.715,351.500 205.408 C 356.337 203.493,362.158 201.770,366.000 201.116 C 366.275 201.069,367.105 201.414,367.845 201.883 M456.091 214.049 C 458.263 215.211,465.842 226.603,475.257 242.855 C 478.649 248.710,483.743 256.425,486.578 260.000 C 491.680 266.435,494.471 270.862,493.831 271.503 C 493.073 272.260,481.235 257.216,478.000 251.385 C 476.075 247.915,471.955 240.896,468.845 235.788 C 463.713 227.359,461.626 224.347,454.964 215.750 C 452.683 212.806,452.967 212.377,456.091 214.049 M340.870 235.423 C 339.255 238.405,336.871 243.918,335.572 247.673 C 331.832 258.486,332.069 258.107,329.793 256.889 C 327.232 255.519,327.732 252.743,332.530 241.693 C 336.175 233.301,338.852 230.000,342.015 230.000 C 343.598 230.000,343.464 230.634,340.870 235.423 M405.696 268.500 C 408.467 272.900,411.961 278.853,413.461 281.729 C 416.648 287.841,421.375 292.309,426.414 293.972 C 428.386 294.623,430.000 295.531,430.000 295.991 C 430.000 296.975,420.799 293.753,417.574 291.640 C 416.349 290.837,413.421 286.428,411.068 281.840 C 403.323 266.741,401.595 264.641,400.705 269.250 C 400.466 270.488,400.277 269.700,400.286 267.500 C 400.294 265.300,399.958 262.375,399.538 261.000 C 398.473 257.510,399.767 259.086,405.696 268.500 M409.448 317.759 C 418.153 326.197,426.682 333.551,429.361 334.928 C 433.730 337.176,438.977 343.356,437.645 344.688 C 437.325 345.009,435.959 344.548,434.611 343.665 C 430.150 340.742,410.640 323.341,402.022 314.600 C 397.359 309.870,393.024 306.000,392.388 306.000 C 391.753 306.000,389.558 307.854,387.511 310.119 C 384.567 313.378,383.941 313.744,384.513 311.869 C 385.745 307.834,390.263 303.000,392.802 303.000 C 393.582 303.000,401.073 309.642,409.448 317.759 M450.546 319.171 C 453.510 320.909,453.640 320.902,455.342 318.914 C 458.018 315.789,459.905 316.895,464.388 324.217 C 468.873 331.543,476.745 342.641,483.032 350.500 C 489.085 358.066,499.000 375.296,499.000 378.247 C 499.000 380.959,497.272 383.249,493.840 385.086 C 492.209 385.958,491.085 385.631,487.807 383.329 C 485.591 381.773,479.244 377.350,473.701 373.500 C 466.252 368.325,463.431 365.766,462.882 363.686 C 461.741 359.366,460.094 358.000,456.028 358.000 C 453.519 358.000,451.025 357.074,448.400 355.167 C 441.567 350.203,441.683 350.610,442.446 334.252 C 442.824 326.138,443.351 318.735,443.618 317.801 C 444.148 315.942,445.488 316.207,450.546 319.171 M371.238 325.566 C 378.347 331.736,394.685 343.900,399.000 346.236 C 402.059 347.892,402.185 347.903,400.000 346.325 C 398.625 345.333,396.375 343.325,395.000 341.865 C 393.625 340.404,390.363 336.944,387.750 334.176 C 380.343 326.327,381.922 324.891,389.750 332.357 C 401.297 343.369,415.875 355.746,424.026 361.457 C 436.128 369.938,436.203 371.346,424.203 364.795 C 407.521 355.689,379.690 336.102,368.045 325.273 C 361.916 319.573,364.618 319.821,371.238 325.566 M356.860 343.063 C 360.553 343.855,365.474 346.681,376.159 354.146 C 384.046 359.657,394.200 366.401,398.722 369.133 C 406.897 374.072,410.064 376.766,406.375 375.644 C 400.305 373.797,394.150 373.005,390.328 373.578 L 385.961 374.233 386.988 371.533 C 388.492 367.575,385.800 362.419,381.400 360.828 C 379.530 360.151,378.000 359.049,378.000 358.377 C 378.000 357.706,375.970 355.884,373.488 354.328 C 371.006 352.773,366.650 349.813,363.807 347.750 C 358.952 344.227,358.180 343.996,351.069 343.930 C 345.912 343.882,344.137 343.586,345.500 343.000 C 348.272 341.809,351.083 341.824,356.860 343.063 M295.716 387.250 C 278.618 405.520,268.728 418.426,258.285 436.097 C 256.517 439.089,253.142 443.869,250.785 446.719 C 248.428 449.568,244.934 454.369,243.020 457.386 C 241.106 460.404,239.355 462.689,239.130 462.464 C 238.320 461.653,272.678 411.518,280.486 402.116 C 289.832 390.863,297.329 383.000,298.713 383.000 C 299.252 383.000,297.903 384.913,295.716 387.250 M299.273 395.897 C 289.851 404.861,283.586 412.898,278.612 422.401 C 276.625 426.196,275.000 428.740,275.000 428.055 C 275.000 425.280,282.138 412.097,286.941 406.000 C 293.253 397.988,306.363 385.595,306.882 387.150 C 307.092 387.779,303.668 391.715,299.273 395.897 M328.104 398.535 C 324.354 402.805,324.248 404.613,327.470 409.360 C 328.828 411.362,329.573 413.000,329.125 413.000 C 327.885 413.000,325.321 409.776,324.551 407.250 C 324.174 406.012,323.558 405.000,323.182 405.000 C 322.805 405.000,320.248 407.254,317.499 410.009 C 314.750 412.764,311.038 416.437,309.250 418.170 C 307.462 419.903,306.000 421.840,306.000 422.474 C 306.000 423.107,304.650 424.919,303.000 426.500 C 298.379 430.927,299.439 427.850,305.133 420.303 C 312.365 410.720,328.090 395.268,330.854 395.030 C 331.048 395.014,329.811 396.591,328.104 398.535 M466.815 407.499 C 471.592 409.829,476.625 412.078,478.000 412.496 C 485.744 414.852,491.000 419.675,491.000 424.424 C 491.000 425.261,488.304 428.771,485.009 432.223 L 479.018 438.500 476.036 435.000 C 474.396 433.075,473.042 431.066,473.027 430.535 C 472.975 428.675,462.674 411.454,458.807 406.763 C 454.476 401.508,454.542 401.514,466.815 407.499 M510.182 413.228 C 510.251 415.050,509.731 418.284,509.028 420.416 C 507.450 425.197,493.653 444.935,482.057 459.000 C 477.295 464.775,471.924 471.658,470.120 474.296 C 466.437 479.683,453.530 492.772,441.500 503.320 C 437.100 507.178,427.875 515.603,421.000 522.043 C 414.125 528.482,401.815 539.544,393.643 546.625 C 364.504 571.877,355.318 579.445,346.034 585.850 C 339.450 590.392,337.975 590.998,333.534 590.984 C 330.765 590.976,325.800 590.240,322.500 589.350 C 319.200 588.459,314.843 587.699,312.817 587.662 C 310.791 587.624,309.338 587.262,309.588 586.857 C 309.838 586.452,314.421 583.244,319.772 579.728 C 332.534 571.340,347.015 560.794,360.000 550.431 C 380.564 534.018,383.845 531.370,397.079 520.500 C 426.173 496.605,448.118 477.099,461.699 463.065 C 469.524 454.979,476.946 447.044,478.191 445.432 C 479.437 443.819,483.233 439.222,486.627 435.216 C 490.021 431.210,496.064 423.262,500.057 417.553 C 506.205 408.764,507.527 407.384,508.687 408.544 C 509.441 409.298,510.114 411.406,510.182 413.228 M289.098 494.000 C 288.144 499.378,288.127 499.400,288.311 495.000 C 288.546 489.411,287.136 488.697,284.599 493.121 C 283.533 494.979,280.968 499.425,278.899 503.000 C 276.830 506.575,271.785 516.112,267.687 524.193 C 260.993 537.392,256.000 545.632,256.000 543.480 C 256.000 543.045,255.213 543.322,254.250 544.095 C 250.955 546.740,248.026 548.000,245.170 548.000 C 241.810 548.000,233.604 545.282,226.331 541.761 C 223.254 540.272,221.359 539.773,221.649 540.528 C 221.917 541.226,221.712 542.060,221.193 542.381 C 220.674 542.701,220.250 541.839,220.250 540.464 C 220.250 539.089,220.593 537.751,221.013 537.492 C 221.433 537.233,225.721 539.034,230.543 541.494 C 241.875 547.276,244.897 547.845,249.425 545.046 C 254.368 541.992,261.621 531.566,269.309 516.467 C 272.940 509.335,277.500 500.867,279.443 497.650 C 281.386 494.432,284.443 489.119,286.238 485.844 L 289.500 479.889 289.786 484.194 C 289.944 486.562,289.634 490.975,289.098 494.000 M462.849 491.623 C 461.660 493.794,458.620 496.995,456.094 498.738 C 448.728 503.819,439.931 512.079,440.648 513.240 C 441.043 513.879,440.836 514.016,440.132 513.582 C 439.418 513.141,436.213 515.503,431.977 519.593 C 428.138 523.299,424.669 526.002,424.267 525.601 C 423.455 524.789,441.890 506.803,452.000 498.544 C 455.575 495.623,459.817 491.836,461.427 490.127 C 463.037 488.419,464.502 487.169,464.682 487.349 C 464.863 487.530,464.038 489.453,462.849 491.623 M505.129 546.291 C 504.009 548.104,499.090 553.119,494.198 557.436 C 487.386 563.448,484.008 565.687,479.778 566.996 C 476.739 567.936,472.593 569.971,470.564 571.519 C 466.966 574.263,465.270 574.727,442.987 579.058 C 439.248 579.785,434.262 579.826,427.487 579.186 L 417.500 578.242 429.000 578.277 C 443.891 578.323,460.109 575.122,468.000 570.579 C 471.025 568.838,475.525 566.650,478.000 565.718 C 482.694 563.949,504.068 545.753,505.482 542.321 C 505.982 541.110,506.389 540.918,506.699 541.748 C 506.956 542.435,506.249 544.479,505.129 546.291 M398.759 561.789 C 401.652 565.480,405.814 570.451,408.009 572.836 C 412.283 577.478,413.007 579.342,410.337 578.823 C 408.880 578.540,400.931 569.478,394.265 560.500 C 392.852 558.597,391.757 557.892,391.269 558.573 C 390.151 560.133,387.153 561.057,386.522 560.036 C 385.909 559.044,390.678 554.979,392.385 555.039 C 392.998 555.061,395.867 558.098,398.759 561.789 M394.230 565.994 C 399.159 569.919,406.737 578.121,417.360 591.029 C 420.315 594.620,424.383 599.007,426.401 600.779 C 429.290 603.315,429.667 604.000,428.176 604.000 C 425.337 604.000,417.235 596.378,414.488 591.123 C 411.605 585.608,408.053 581.004,408.022 582.741 C 408.010 583.424,405.486 581.174,402.414 577.741 C 399.342 574.309,394.505 569.367,391.664 566.761 C 385.388 561.001,387.257 560.442,394.230 565.994 M519.056 568.331 C 517.821 572.073,493.479 597.882,490.930 598.151 C 486.256 598.646,478.272 598.385,478.660 597.750 C 478.912 597.337,481.532 597.000,484.483 597.000 L 489.848 597.000 503.382 583.309 C 510.826 575.778,517.445 568.339,518.093 566.777 C 519.713 562.864,520.461 564.072,519.056 568.331 " stroke="none" fill="undefined" fill-rule="evenodd"/></svg>